<mxfile host="app.diagrams.net" agent="Mozilla/5.0 (Windows NT 10.0; Win64; x64) AppleWebKit/537.36 (KHTML, like Gecko) Chrome/128.0.0.0 Safari/537.36 Edg/128.0.0.0" version="24.7.10">
  <diagram name="Page-1" id="U3QiTBUr5mV-H4sWZZAz">
    <mxGraphModel dx="1042" dy="567" grid="1" gridSize="10" guides="1" tooltips="1" connect="1" arrows="1" fold="1" page="1" pageScale="1" pageWidth="850" pageHeight="1100" math="0" shadow="0">
      <root>
        <mxCell id="0" />
        <mxCell id="1" parent="0" />
        <mxCell id="yYFKdarVrOwxy47BEsRJ-1" value="" style="whiteSpace=wrap;html=1;aspect=fixed;fillColor=#F2F2F2;" vertex="1" parent="1">
          <mxGeometry x="150" y="110" width="570" height="570" as="geometry" />
        </mxCell>
        <mxCell id="yYFKdarVrOwxy47BEsRJ-2" value="" style="html=1;outlineConnect=0;whiteSpace=wrap;fillColor=#dae8fc;verticalLabelPosition=bottom;verticalAlign=top;align=center;shape=mxgraph.archimate3.actor;strokeColor=#6c8ebf;" vertex="1" parent="1">
          <mxGeometry x="90" y="210" width="26.5" height="50" as="geometry" />
        </mxCell>
        <mxCell id="yYFKdarVrOwxy47BEsRJ-3" value="User" style="text;html=1;align=center;verticalAlign=middle;whiteSpace=wrap;rounded=0;" vertex="1" parent="1">
          <mxGeometry x="73.25" y="260" width="60" height="30" as="geometry" />
        </mxCell>
        <mxCell id="yYFKdarVrOwxy47BEsRJ-5" value="Try AI test for career path recommendations" style="ellipse;whiteSpace=wrap;html=1;fillColor=#dae8fc;strokeColor=#6c8ebf;" vertex="1" parent="1">
          <mxGeometry x="190" y="130" width="150" height="60" as="geometry" />
        </mxCell>
        <mxCell id="yYFKdarVrOwxy47BEsRJ-6" value="Read articles about different faculties and career paths&amp;nbsp;" style="ellipse;whiteSpace=wrap;html=1;fillColor=#dae8fc;strokeColor=#6c8ebf;" vertex="1" parent="1">
          <mxGeometry x="195" y="195" width="140" height="65" as="geometry" />
        </mxCell>
        <mxCell id="yYFKdarVrOwxy47BEsRJ-7" value="Ask questions and get answers from volunteers and our team" style="ellipse;whiteSpace=wrap;html=1;fillColor=#dae8fc;strokeColor=#6c8ebf;" vertex="1" parent="1">
          <mxGeometry x="195" y="270" width="140" height="80" as="geometry" />
        </mxCell>
        <mxCell id="yYFKdarVrOwxy47BEsRJ-8" value="" style="ellipse;whiteSpace=wrap;html=1;" vertex="1" parent="1">
          <mxGeometry x="205" y="370" width="120" height="80" as="geometry" />
        </mxCell>
      </root>
    </mxGraphModel>
  </diagram>
</mxfile>
